# xmcd
#
# Track frame offsets:
#  150
#  16989
#  38496
#  59219
#  77753
#  92523
#  108466
#  126006
#
# Disc length: 1900 seconds
#
# Revision: 0
# Processed by: cddbd v1.5.1PL2 Copyright (c) Steve Scherf et al.
# Submitted via: Collectorz.com_Music_Collector 6.11
#
DISCID=5e076a08
DTITLE=Todd Snider - Maintenance Shop, Ames 26/10/2001 [CD2)
DYEAR=2001
DGENRE=Alt Country
TTITLE0=Sideshow Blues
TTITLE1=Long Year
TTITLE2=Talkin' Seattle Grunge Rock Blues
TTITLE3=Alright Guy
TTITLE4=Missing You
TTITLE5=Beer Run
TTITLE6=Mr. Bojangles
TTITLE7=Illegal Smile
EXTD=
EXTT0=
EXTT1=
EXTT2=
EXTT3=
EXTT4=
EXTT5=
EXTT6=
EXTT7=
PLAYORDER=
